<svg width="71" height="42" viewBox="0 0 71 42" fill="none" xmlns="http://www.w3.org/2000/svg">
<g clip-path="url(#clip0_2_2742)">
<path d="M71 17.9794V26.3866H61.2878V42H52.9628V26.3866H35.3291V17.9794H52.9628V2.36603H61.2878V17.9794H71Z" fill="#0C5220"/>
<path d="M11.5087 0.182156V0.232199C11.5087 0.530455 11.0159 0.496426 10.7357 1.15899L6.49267 11.3277C6.3456 11.658 6.16475 11.7581 5.90044 11.7581C5.65401 11.7581 5.47316 11.626 5.34199 11.3437L0.739293 1.17501C0.443179 0.514441 0 0.546468 0 0.232199V0.19817C0 0.0660566 0.131165 0 0.345799 0H2.69683C2.89358 0 3.04263 0.0660566 3.04263 0.19817V0.232199C3.04263 0.546468 2.18807 0.580498 2.4345 1.17501L6.24822 10.1187L9.83141 1.15899C10.0619 0.578496 9.1577 0.530455 9.1577 0.232199V0.182156C9.1577 0.0660566 9.25707 0 9.48561 0H11.1947C11.3915 0 11.5067 0.0660566 11.5067 0.182156H11.5087Z" fill="#0C5220"/>
<path d="M11.2782 11.5439V11.4778C11.2782 11.1636 11.8704 11.1636 11.8704 10.5831V5.64884C11.8704 5.00228 11.2782 4.87017 11.2782 4.62196V4.58793C11.2782 4.47183 11.3776 4.42179 11.5246 4.33972L12.7906 3.71118C13.1364 3.54503 13.2993 3.71118 13.2993 3.94338V10.5851C13.2993 11.1656 13.9571 11.1656 13.9571 11.4798V11.5459C13.9571 11.678 13.8101 11.7621 13.6113 11.7621H11.5882C11.3915 11.7621 11.2762 11.68 11.2762 11.5459L11.2782 11.5439ZM11.4432 1.20903C11.4432 0.596507 11.8704 0.166138 12.5441 0.166138C13.2179 0.166138 13.6133 0.596507 13.6133 1.20903C13.6133 1.82156 13.1861 2.23591 12.5441 2.23591C11.8704 2.23591 11.4432 1.82156 11.4432 1.20903Z" fill="#0C5220"/>
<path d="M14.2215 7.73463C14.2215 5.2505 16.03 3.66114 18.2657 3.64513C20.0583 3.62911 21.4713 4.77009 21.4713 5.69889C21.4713 6.02917 21.2746 6.2954 20.8135 6.27938C19.8596 6.24535 19.8755 4.1936 18.0014 4.17558C16.6361 4.17558 15.6663 5.45067 15.6663 7.09008C15.6663 9.40806 16.966 10.8833 18.7904 10.8833C19.9411 10.8833 20.6982 10.1547 21.0758 9.32599C21.207 9.07778 21.6184 9.12782 21.5528 9.45811C21.3223 10.6671 20.2372 11.9262 18.3293 11.9262C16.0439 11.9262 14.2195 10.1367 14.2195 7.73663L14.2215 7.73463Z" fill="#0C5220"/>
<path d="M22.624 9.42408V4.47184H21.5389C21.3918 4.47184 21.2924 4.37175 21.2924 4.22363V4.05748C21.2924 3.90736 21.3739 3.80927 21.5389 3.80927H22.1311C22.9201 3.80927 23.2977 3.18073 23.3812 2.23592C23.3971 2.01974 23.5123 1.90564 23.6614 1.90564H23.8263C24.0231 1.90564 24.0886 2.02174 24.0886 2.23592L24.1045 3.80927H26.3741C26.5053 3.80927 26.6205 3.92537 26.6205 4.05748V4.22363C26.6205 4.37175 26.5053 4.47184 26.3741 4.47184H24.1045V9.4401C24.1045 10.3509 24.5318 10.8313 25.14 10.8313C25.8634 10.8313 26.2906 10.4009 26.3562 9.83844C26.4556 9.59023 26.8491 9.60624 26.8491 9.9045C26.8491 10.9314 26.0601 11.9242 24.7445 11.9242C23.4288 11.9242 22.624 11.1135 22.624 9.42408Z" fill="#0C5220"/>
<path d="M26.6841 7.66859C26.6841 5.36662 28.427 3.64514 30.6787 3.64514C33.145 3.64514 34.8541 5.53276 34.8541 7.85075C34.8541 10.1687 33.292 11.9242 30.9748 11.9242C28.3614 11.9242 26.6841 9.92052 26.6841 7.66859ZM33.4093 8.34717C33.4093 6.02919 32.193 4.18961 30.5157 4.18961C29.1186 4.18961 28.1488 5.3486 28.1488 7.20419C28.1488 9.32401 29.365 11.3778 31.1735 11.3778C32.4554 11.3778 33.4093 10.2028 33.4093 8.34717Z" fill="#0C5220"/>
<path d="M40.8241 4.91822C40.8241 5.34859 40.6274 5.69689 40.1663 5.69689C39.3117 5.69689 39.7231 4.53789 38.7036 4.53789C37.7994 4.53789 37.3065 5.58079 37.3065 6.82385V10.5991C37.3065 11.1796 37.9961 11.1956 37.9961 11.4939V11.5599C37.9961 11.692 37.8808 11.7581 37.6682 11.7581H35.6292C35.4145 11.7581 35.3013 11.692 35.3013 11.5599V11.4939C35.3013 11.1956 35.9094 11.1796 35.9094 10.5991V5.56477C35.9094 4.93624 35.2516 4.91822 35.2516 4.60395V4.56992C35.2516 4.45382 35.351 4.35374 35.498 4.27167L36.7481 3.70918C37.0601 3.56106 37.1753 3.69317 37.1753 3.94138V5.26652C37.537 4.20761 38.2942 3.64313 39.3137 3.64313C40.3332 3.64313 40.8261 4.22362 40.8261 4.91822H40.8241Z" fill="#0C5220"/>
<path d="M48.7159 4.00743V4.05748C48.7159 4.38776 48.2886 4.37175 47.9766 5.08436L44.8684 11.9903C44.2264 13.4475 43.4713 15.2691 41.8595 15.2691C40.6274 15.2691 39.8364 14.4404 39.8364 13.7958C39.8364 13.4155 40.0669 13.1333 40.4604 13.1333C41.315 13.1333 41.0845 14.6906 42.104 14.6906C42.8115 14.6906 43.5348 13.5316 44.1092 12.0743L40.9533 5.06834C40.6254 4.37375 40.1643 4.38976 40.1643 4.05748V4.00743C40.1643 3.87532 40.2796 3.80927 40.4107 3.80927H42.5491C42.6803 3.80927 42.7797 3.89134 42.7797 4.00743V4.05748C42.7797 4.38776 42.1874 4.37175 42.4994 5.08436L44.8664 10.6992L47.2174 5.21847C47.5791 4.37375 46.5934 4.38976 46.5934 4.05948V4.00944C46.5934 3.89334 46.6927 3.81127 46.8398 3.81127H48.4833C48.6145 3.81127 48.7139 3.87732 48.7139 4.00944L48.7159 4.00743Z" fill="#0C5220"/>
<path d="M1.0036 26.5227V26.4887C1.0036 26.1744 1.61173 26.1584 1.61173 25.5619V16.1218C1.61173 15.5093 1.0036 15.5093 1.0036 15.195V15.161C1.0036 15.0289 1.11887 14.9628 1.29972 14.9628H8.22165C8.48398 14.9628 8.58335 15.0949 8.63303 15.3432L9.02852 16.9826C9.0782 17.1987 8.97883 17.3128 8.81388 17.3128H8.7483C8.22165 17.3128 7.84406 15.6394 6.97161 15.6394H3.58517C3.28906 15.6394 3.10821 15.8056 3.10821 16.1699V20.8739H6.15084C6.70928 20.8739 6.75896 19.8971 7.08886 19.8971H7.18823C7.3194 19.8971 7.40287 19.9971 7.40287 20.1793V22.217C7.40287 22.3832 7.32138 22.4993 7.18823 22.4993H7.08886C6.76095 22.4993 6.71127 21.5725 6.15084 21.5725H3.10821V25.5639C3.10821 26.1604 3.75012 26.1764 3.75012 26.4907V26.5247C3.75012 26.6569 3.61895 26.7229 3.42221 26.7229H1.34742C1.15067 26.7229 1.00162 26.6569 1.00162 26.5247L1.0036 26.5227Z" fill="#0C5220"/>
<path d="M16.03 26.4727C16.03 26.7209 15.5868 26.821 14.9787 26.821C14.2394 26.821 13.8439 26.6389 13.7783 25.7281C13.4007 26.4227 12.6117 26.8871 11.4114 26.8871C9.60288 26.8871 8.35283 25.9763 8.35283 24.3869C8.33694 22.7976 9.65256 21.9368 11.3617 21.9368C12.2321 21.9368 12.9396 22.185 13.3848 22.5994L13.351 22.153C13.1702 20.1993 12.6435 19.1384 11.3279 19.1384C9.61878 19.1384 9.88111 21.026 9.05834 21.026C8.66286 21.026 8.41643 20.7938 8.41643 20.4135C8.41643 19.5368 9.53531 18.608 11.3259 18.608C13.349 18.608 14.5653 19.9171 14.7779 22.103L15.1058 25.3978C15.2052 26.4247 16.026 26.0604 16.026 26.4747L16.03 26.4727ZM13.5637 24.5371L13.4981 23.7924C13.3331 23.0137 12.6594 22.4673 11.6896 22.4673C10.5707 22.4673 9.79962 23.1619 9.79962 24.1888C9.79962 25.3978 10.5886 26.3586 11.7731 26.3586C12.8741 26.3586 13.5974 25.5479 13.5656 24.5371H13.5637Z" fill="#0C5220"/>
<path d="M15.9485 26.5067V26.4407C15.9485 26.1264 16.5407 26.1264 16.5407 25.5459V20.6117C16.5407 19.9651 15.9485 19.833 15.9485 19.5848V19.5508C15.9485 19.4347 16.0478 19.3846 16.1949 19.3025L17.4608 18.674C17.8066 18.5079 17.9696 18.674 17.9696 18.9062V25.5479C17.9696 26.1284 18.6274 26.1284 18.6274 26.4427V26.5087C18.6274 26.6408 18.4803 26.7249 18.2816 26.7249H16.2585C16.0617 26.7249 15.9465 26.6428 15.9465 26.5087L15.9485 26.5067ZM16.1134 16.1719C16.1134 15.5593 16.5407 15.129 17.2144 15.129C17.8881 15.129 18.2836 15.5593 18.2836 16.1719C18.2836 16.7844 17.8563 17.1987 17.2144 17.1987C16.5407 17.1987 16.1134 16.7844 16.1134 16.1719Z" fill="#0C5220"/>
<path d="M19.8616 24.3869V19.4347H18.7765C18.6294 19.4347 18.53 19.3346 18.53 19.1865V19.0203C18.53 18.8722 18.6115 18.7721 18.7765 18.7721H19.3687C20.1577 18.7721 20.5353 18.1436 20.6187 17.1988C20.6346 16.9826 20.7499 16.8685 20.8989 16.8685H21.0639C21.2606 16.8685 21.3262 16.9846 21.3262 17.1988L21.3421 18.7721H23.6117C23.7428 18.7721 23.8581 18.8882 23.8581 19.0203V19.1865C23.8581 19.3366 23.7428 19.4347 23.6117 19.4347H21.3421V24.4029C21.3421 25.3137 21.7694 25.7941 22.3775 25.7941C23.1009 25.7941 23.5282 25.3638 23.5938 24.8013C23.6932 24.5531 24.0867 24.5691 24.0867 24.8673C24.0867 25.8942 23.2977 26.8871 21.9821 26.8871C20.6664 26.8871 19.8616 26.0764 19.8616 24.3869Z" fill="#0C5220"/>
<path d="M32.3739 26.4567V26.5227C32.3739 26.6548 32.2427 26.7209 32.046 26.7209H30.0726C29.8758 26.7209 29.7446 26.6548 29.7446 26.5227V26.4567C29.7446 26.1424 30.3687 26.1244 30.3369 25.5459L30.1719 22.167C30.0904 20.2133 29.2836 19.2525 28.1488 19.2525C26.9325 19.2525 26.0939 20.2293 26.0939 21.5384V25.5619C26.0939 26.1424 26.7517 26.1244 26.7517 26.4567V26.5067C26.7517 26.6388 26.6046 26.7229 26.4059 26.7229H24.351C24.1542 26.7229 24.039 26.6408 24.039 26.5067V26.4567C24.039 26.1244 24.6471 26.1424 24.6471 25.5619V16.2059C24.6471 15.5593 24.0231 15.5273 24.0231 15.2611V15.211C24.0231 15.0789 24.1046 14.9948 24.2536 14.9288L25.601 14.3323C25.8971 14.1821 26.078 14.2982 26.078 14.5484L26.0442 19.915C26.553 19.1204 27.4413 18.6059 28.4946 18.6059C30.1063 18.6059 31.4538 19.6989 31.6028 22.199L31.7837 25.5279C31.8333 26.1244 32.3759 26.1404 32.3759 26.4546L32.3739 26.4567Z" fill="#0C5220"/>
<path d="M0.576324 35.6906C0.576324 32.2136 2.87767 29.7775 6.03557 29.7775C8.63303 29.7775 10.525 31.6491 10.525 32.8422C10.525 33.2725 10.2627 33.5548 9.80159 33.5548C8.56745 33.5548 8.66682 30.4581 5.65797 30.4581C3.75012 30.4581 2.0569 32.2476 2.0569 34.8639C2.0569 38.2088 4.21118 40.5267 6.52843 40.5267C8.50187 40.5267 9.63664 39.0034 10.1454 37.7784C10.3422 37.4481 10.8529 37.5142 10.7535 37.9946C10.3918 39.9482 8.84568 41.8539 6.11705 41.8539C3.22347 41.8539 0.576324 38.9714 0.576324 35.6926V35.6906Z" fill="#0C5220"/>
<path d="M19.2852 41.4215V41.4876C19.2852 41.6197 19.1541 41.6858 18.9573 41.6858H16.9839C16.7871 41.6858 16.656 41.6197 16.656 41.4876V41.4215C16.656 41.1073 17.28 41.0912 17.2482 40.5107L17.0832 37.1318C17.0018 35.1782 16.1949 34.2174 15.0601 34.2174C13.8439 34.2174 13.0052 35.1942 13.0052 36.5033V40.5268C13.0052 41.1073 13.663 41.0892 13.663 41.4215V41.4716C13.663 41.6037 13.516 41.6878 13.3172 41.6878H11.2623C11.0656 41.6878 10.9503 41.6057 10.9503 41.4716V41.4215C10.9503 41.0912 11.5584 41.1073 11.5584 40.5268V31.1707C11.5584 30.5242 10.9344 30.4922 10.9344 30.2259V30.1759C10.9344 30.0438 11.0159 29.9597 11.1649 29.8936L12.5123 29.2971C12.8085 29.149 12.9893 29.2631 12.9893 29.5133L12.9555 34.8799C13.4643 34.0852 14.3526 33.5708 15.4059 33.5708C17.0177 33.5708 18.3651 34.6637 18.5141 37.1639L18.695 40.4927C18.7447 41.0892 19.2872 41.1053 19.2872 41.4195L19.2852 41.4215Z" fill="#0C5220"/>
<path d="M27.7871 41.4375C27.7871 41.7197 27.4592 41.7858 26.7676 41.7858C26.0283 41.7858 25.5334 41.4875 25.5672 40.5608L25.5334 40.4607C25.0565 41.3374 24.1681 41.8519 23.0016 41.8519C21.209 41.8519 19.9589 40.5267 19.9589 38.0766V35.1461C19.9589 34.5176 19.3508 34.4675 19.3508 34.1853V34.1352C19.3508 34.0191 19.4502 33.9191 19.5972 33.887L20.9784 33.6388C21.2587 33.5888 21.4216 33.6228 21.4216 33.837L21.4057 38.1927C21.4057 40.1144 22.0973 41.2073 23.3454 41.2073C24.5119 41.2073 25.4341 40.2145 25.4341 38.6891V35.1441C25.4341 34.5156 24.7922 34.4815 24.7922 34.1833V34.1332C24.7922 34.0171 24.8736 33.9171 25.0386 33.885L26.4357 33.6368C26.7159 33.5868 26.863 33.6208 26.863 33.835V40.2605C26.863 41.4695 27.7831 40.9551 27.7831 41.4355L27.7871 41.4375Z" fill="#0C5220"/>
<path d="M33.5564 34.8459C33.5564 35.2763 33.3596 35.6246 32.8986 35.6246C32.044 35.6246 32.4554 34.4656 31.4359 34.4656C30.5316 34.4656 30.0388 35.5085 30.0388 36.7515V40.5268C30.0388 41.1073 30.7284 41.1233 30.7284 41.4215V41.4876C30.7284 41.6197 30.6131 41.6858 30.4005 41.6858H28.3615C28.1468 41.6858 28.0335 41.6197 28.0335 41.4876V41.4215C28.0335 41.1233 28.6417 41.1073 28.6417 40.5268V35.4924C28.6417 34.8639 27.9839 34.8459 27.9839 34.5316V34.4976C27.9839 34.3815 28.0832 34.2814 28.2303 34.1993L29.4803 33.6369C29.7923 33.4887 29.9076 33.6208 29.9076 33.8691V35.1942C30.2693 34.1353 31.0265 33.5708 32.046 33.5708C33.0655 33.5708 33.5584 34.1513 33.5584 34.8459H33.5564Z" fill="#0C5220"/>
<path d="M33.1132 37.6623C33.1132 35.1782 34.9217 33.5888 37.1574 33.5728C38.95 33.5568 40.363 34.6978 40.363 35.6266C40.363 35.9568 40.1663 36.2231 39.7052 36.2071C38.7513 36.173 38.7672 34.1213 36.8931 34.1033C35.5278 34.1033 34.558 35.3783 34.558 37.0177C34.558 39.3357 35.8577 40.811 37.6821 40.811C38.8328 40.811 39.59 40.0824 39.9676 39.2537C40.0987 39.0055 40.5101 39.0555 40.4445 39.3858C40.214 40.5948 39.1289 41.8539 37.221 41.8539C34.9356 41.8539 33.1112 40.0644 33.1112 37.6643L33.1132 37.6623Z" fill="#0C5220"/>
<path d="M48.9961 41.4215V41.4876C48.9961 41.6197 48.8649 41.6858 48.6682 41.6858H46.6947C46.498 41.6858 46.3668 41.6197 46.3668 41.4876V41.4215C46.3668 41.1073 46.9908 41.0912 46.959 40.5107L46.7941 37.1318C46.7126 35.1782 45.9057 34.2174 44.771 34.2174C43.5547 34.2174 42.716 35.1942 42.716 36.5033V40.5268C42.716 41.1073 43.3739 41.0892 43.3739 41.4215V41.4716C43.3739 41.6037 43.2268 41.6878 43.0281 41.6878H40.9731C40.7764 41.6878 40.6611 41.6057 40.6611 41.4716V41.4215C40.6611 41.0912 41.2693 41.1073 41.2693 40.5268V31.1707C41.2693 30.5242 40.6452 30.4922 40.6452 30.2259V30.1759C40.6452 30.0438 40.7267 29.9597 40.8758 29.8936L42.2232 29.2971C42.5193 29.149 42.7001 29.2631 42.7001 29.5133L42.6664 34.8799C43.1751 34.0852 44.0635 33.5708 45.1168 33.5708C46.7285 33.5708 48.0759 34.6637 48.225 37.1639L48.4058 40.4927C48.4555 41.0892 48.9981 41.1053 48.9981 41.4195L48.9961 41.4215Z" fill="#0C5220"/>
</g>
<defs>
<clipPath id="clip0_2_2742">
<rect width="71" height="42" fill="white"/>
</clipPath>
</defs>
</svg>
