<svg width="1278" height="924" viewBox="0 0 1278 924" fill="none" xmlns="http://www.w3.org/2000/svg">
<mask id="mask0_248_301" style="mask-type:alpha" maskUnits="userSpaceOnUse" x="-2" y="0" width="1280" height="924">
<path d="M-2 0H1278V884C1278 906.091 1260.09 924 1238 924H38C15.9086 924 -2 906.091 -2 884V0Z" fill="#F9FFDA"/>
</mask>
<g mask="url(#mask0_248_301)">
<path d="M332.137 687.172C211.132 569.205 -20.793 658.762 -121.63 718.287L-154 855.6L-78.0779 953.004L160.282 999H861.238L1354.44 978.031L1418 629C1339.14 721.895 1161.51 878.192 1081.94 760.225C1002.37 642.258 857.314 654.253 794.732 674.996C690.952 728.208 453.142 805.139 332.137 687.172Z" fill="#D0F80C"/>
</g>
</svg>
