<svg width="91" height="64" viewBox="0 0 91 64" fill="none" xmlns="http://www.w3.org/2000/svg">
<g clip-path="url(#clip0_248_586)">
<path d="M88.9903 9.98211C87.9281 6.05584 84.8618 2.98881 80.9365 1.92637C73.8749 0 45.4532 0 45.4532 0C45.4532 0 17.0315 0.058375 9.96991 1.98475C6.04459 3.04718 2.97831 6.11422 1.91613 10.0405C-0.219869 22.5911 -1.04859 41.7147 1.97449 53.7633C3.03667 57.6896 6.10295 60.7566 10.0283 61.819C17.0899 63.7454 45.5116 63.7454 45.5116 63.7454C45.5116 63.7454 73.9332 63.7454 80.9949 61.819C84.9202 60.7566 87.9865 57.6896 89.0486 53.7633C91.3014 41.1952 91.9958 22.0832 88.9903 9.98211Z" fill="#FF0000"/>
<path d="M36.4072 45.5324L59.9849 31.8727L36.4072 18.213V45.5324Z" fill="white"/>
</g>
<defs>
<clipPath id="clip0_248_586">
<rect width="91" height="64" fill="white"/>
</clipPath>
</defs>
</svg>
